<svg xmlns="http://www.w3.org/2000/svg" viewBox="0 0 1000 1000"><path d="M929.2 249c-20.8-34.4-46.5-68.1-77.9-99.3-31.8-31.5-66-57.4-101.1-78.1L811.8 10s89.1 0 133.6 44.5C990 99.1 990 188.2 990 188.2L929.2 249zM380.6 805.6H194.5V619.4l22.3-22.3c37.8 17.8 75.4 43 109.2 76.8 33.9 33.8 59 71.4 76.9 109.3l-22.3 22.4zm497.2-505.1l-421.1 429c-21.7-36-48.5-71.1-81.3-103.7-33.2-33-68.9-59.9-105.5-81.6l429.8-421.9c36.2 17 72.2 41.1 104.6 73.5 32.3 32.5 56.4 68.4 73.5 104.7zm-745.3-168v734.9h735V561.3L990 438.8v462.1c0 49.2-39.9 89.1-89.1 89.1H99.1C49.9 990 10 950.1 10 900.9V99.1C10 49.9 49.9 10 99.1 10h462.2L438.8 132.5H132.5z"/></svg>