<?xml version="1.0" encoding="utf-8"?>
<!-- Svg Vector Icons : http://www.onlinewebfonts.com/icon -->
<!DOCTYPE svg PUBLIC "-//W3C//DTD SVG 1.1//EN" "http://www.w3.org/Graphics/SVG/1.1/DTD/svg11.dtd">
<svg version="1.1" xmlns="http://www.w3.org/2000/svg" xmlns:xlink="http://www.w3.org/1999/xlink" x="0px" y="0px" viewBox="0 0 1000 1000" enable-background="new 0 0 1000 1000" xml:space="preserve">
<metadata> Svg Vector Icons : http://www.onlinewebfonts.com/icon </metadata>
<g><path d="M500,10C229.4,10,10,229.4,10,500s219.4,490,490,490s490-219.4,490-490S770.6,10,500,10z M726.6,637.1c24.6,24.6,24.6,64.7,0,89.4c-12.3,12.3-27.7,18.4-46.2,18.4c-15.4,0-30.7-6.1-43.1-18.4L499.2,588.3L360,726.4c-12.4,12.4-27.8,18.5-43.2,18.5c-15.4,0-30.9-6.1-43.2-18.5c-24.6-24.7-24.6-64.8,0-89.4l137.1-137.1l-137-136.9c-24.6-24.6-24.6-64.7,0-89.3c24.7-24.6,64.7-24.6,89.4,0l136.9,137l137.4-137.4c24.6-24.7,64.7-24.7,89.5,0c24.6,24.6,24.6,64.7,0,89.4l-138,136.8L726.6,637.1z"/></g>
</svg>